<?xml version="1.0" encoding="UTF-8" standalone="no"?>
<!-- Created with Inkscape (http://www.inkscape.org/) -->

<svg
   width="40.951302mm"
   height="48.478973mm"
   viewBox="0 0 40.951302 48.478973"
   version="1.1"
   id="svg5"
   xml:space="preserve"
   xmlns="http://www.w3.org/2000/svg"
   xmlns:svg="http://www.w3.org/2000/svg"><defs
     id="defs2" /><path
     d="m 9.072795,48.331647 c 0.14736,-0.21049 3.19583,-3.408 6.774379,-7.1056 9.85683,-10.18476 11.86102,-12.24069 16.41902,-16.84288 2.30822,-2.3306 4.16237,-4.27058 4.12034,-4.31106 -0.042,-0.0405 -1.0391,0.008 -2.2157,0.10763 l -2.13929,0.18124 -1.85417,2.40431 c -1.23589,1.60259 -1.9922,2.43894 -2.26812,2.50819 -0.2908,0.073 -0.53286,0.36132 -0.81364,0.96919 -0.52662,1.1401 -1.85884,2.70174 -2.80268,3.28534 -0.54994,0.34004 -0.81875,0.64696 -0.98509,1.12471 -0.5077,1.45816 -1.98231,3.21012 -3.25874,3.87163 -0.25421,0.13174 -0.4622,0.36498 -0.4622,0.5183 0,0.52963 -0.66918,1.64886 -1.5616,2.61186 l -0.89559,0.96642 h -1.37061 c -1.616149,0 -1.710679,-0.0915 -1.846749,-1.7867 -0.0782,-0.97457 -0.0431,-1.12017 0.45915,-1.90287 0.611879,-0.95354 1.232319,-1.52973 1.981229,-1.83993 0.3594,-0.14887 0.53806,-0.3603 0.61049,-0.72248 0.20224,-1.0112 2.33312,-3.60163 3.28808,-3.99718 0.39544,-0.1638 0.55108,-0.38521 0.75301,-1.07129 0.40137,-1.36368 2.56762,-3.80608 3.37574,-3.80608 0.11262,0 0.24487,-0.29899 0.29388,-0.66442 0.049,-0.36543 0.24805,-0.88763 0.44231,-1.16043 0.19426,-0.27281 0.3532,-0.5356 0.3532,-0.58399 0,-0.0484 -0.42479,-0.0441 -0.94398,0.009 l -0.94398,0.0974 0.21505,-0.40369 c 0.56091,-1.05293 6.92617,-12.6520398 9.05824,-16.5063998 1.31966,-2.38569 2.42464,-4.31235995 2.45551,-4.28149995444 0.0309,0.0309000044 -0.0519,1.52899995444 -0.18382,3.32917995444 -0.13196,1.80019 -0.24106,3.32899 -0.24245,3.39734 -10e-4,0.0683 0.36032,0.52493 0.80378,1.01462 2.87684,3.1766998 4.83526,7.6928198 5.1547,11.8867198 l 0.10881,1.42863 -0.42423,-0.99893 c -0.96019,-2.26096 -2.57216,-3.85961 -4.43894,-4.4023 -1.98711,-0.57767 -4.64505,0.049 -5.9357,1.39952 l -0.56522,0.59142 0.6592,-0.4415 c 1.52024,-1.01817 3.56628,-1.18037 5.52397,-0.43789 1.30776,0.49598 2.51018,1.71111 3.26406,3.29855 1.5547,3.27376 1.29045,7.48722 -0.72621,11.57969 -2.15998,4.38331 -6.17501,7.86741 -11.2294,9.74447 -1.75492,0.65173 -4.53157,1.33727 -4.37226,1.07949 0.0514,-0.0832 0.18911,-0.15135 0.30591,-0.15135 0.38732,0 3.19596,-1.46435 4.29702,-2.24035 1.39356,-0.98215 3.37806,-2.93763 4.31854,-4.25539 1.58299,-2.21804 2.78562,-5.50618 3.00301,-8.21061 l 0.0946,-1.1765 -0.42976,1.59669 c -1.17911,4.38076 -4.19368,8.49633 -8.07796,11.02824 -1.5851,1.03322 -2.66481,1.54828 -4.88201,2.32892 -1.42294,0.50099 -4.40157,2.22725 -11.215769,6.50009 -0.97637,0.61223 -1.24623,0.72613 -1.04733,0.44204 z m 8.247879,-10.84521 c 0.22375,-0.25421 0.4092,-0.50559 0.41212,-0.55862 0.007,-0.12937 -2.38861,0.67254 -2.59141,0.8674 -0.097,0.0932 0.2193,0.15342 0.80641,0.15342 0.84323,0 1.0178,-0.0588 1.37288,-0.4622 z m -1.69514,-1.34458 c 0.12662,-0.40457 -0.0105,-0.45771 -0.70264,-0.27223 -0.388309,0.10407 -0.470099,0.45847 -0.274309,1.18869 0.0986,0.36785 0.101709,0.36731 0.478929,-0.084 0.20881,-0.24985 0.43292,-0.62444 0.49802,-0.83243 z m 0.59992,-1.05272 c 0.91195,-0.27886 1.22285,-0.47907 1.88152,-1.21164 0.43397,-0.48268 0.76703,-0.8996 0.74013,-0.92651 -0.0981,-0.0981 -2.35814,0.82466 -2.81283,1.14843 -0.50422,0.35903 -1.26452,1.32952 -1.03879,1.32597 0.0756,-10e-4 0.62911,-0.15251 1.22997,-0.33625 z m 3.65454,-1.28434 c 0.60575,-0.37566 1.37766,-1.07878 1.56675,-1.42713 0.13174,-0.24271 0.0423,-0.2357 -0.72878,0.0571 -0.80108,0.30421 -1.53124,0.92739 -1.97754,1.68781 -0.15175,0.25856 -0.12303,0.27341 0.25256,0.13061 0.23307,-0.0886 0.63223,-0.29039 0.88701,-0.44839 z m 1.93859,-4.30571 c 0.16437,-0.20585 0.45933,-0.59095 0.65548,-0.85579 l 0.35663,-0.48152 -0.40337,0.12479 c -1.69541,0.52451 -2.30296,0.85014 -3.05051,1.63498 -0.43909,0.461 -0.79835,0.89799 -0.79835,0.9711 0,0.24752 2.9391,-1.01658 3.24012,-1.39356 z m 1.82292,-0.41765 c 0.78969,-0.46825 2.0132,-1.72137 1.68068,-1.72137 -0.51513,0 -1.55118,0.59705 -1.98654,1.14479 -0.95622,1.20308 -0.90705,1.29577 0.30586,0.57658 z m 0.52342,-3.48538 1.30061,-0.44724 1.62559,-2.04574 c 0.89407,-1.12515 1.69267,-2.13343 1.77466,-2.2406 0.23259,-0.30405 -1.90218,-0.0709 -2.26728,0.24757 -0.16476,0.14373 -0.45973,0.5205 -0.6555,0.83726 -0.34128,0.5522 -0.34412,0.59596 -0.0689,1.06186 0.31607,0.53506 0.2395,0.82137 -0.21967,0.82137 -0.56232,0 -2.33699,1.01755 -2.77405,1.59057 -0.48034,0.62975 -0.54585,0.83435 -0.22616,0.70633 0.11555,-0.0463 0.79537,-0.28539 1.5107,-0.53138 z m 4.97983,-2.90001 c 0.84285,-1.08616 1.53302,-2.0292 1.5337,-2.09563 0.003,-0.27748 -0.4625,0.11547 -1.10222,0.93073 -2.26126,2.8818 -2.44286,3.13976 -2.21035,3.13976 0.13551,0 0.93601,-0.88869 1.77887,-1.97486 z m -19.566379,19.91271 0.0785,-3.15524 -1.29568,-0.9488 c -3.21491,-2.3542 -6.11963,-6.13886 -7.42445001,-9.67356 -0.38542,-1.04408 -1.02118,-3.31989 -0.92743,-3.31989 0.036,0 0.22138,0.35247 0.41194,0.78326 1.25292001,2.83245 4.22896001,4.75936 7.03898001,4.55758 1.29243,-0.0928 2.64475,-0.66493 3.65037,-1.54434 l 0.66094,-0.57798 -1.00844,0.49375 c -2.79856,1.37023 -5.46352,0.86442 -7.62617,-1.44746 -1.23952,-1.32505 -2.07883,-3.00437 -2.46702001,-4.93609 -0.38524,-1.91708 -0.26665,-5.75217 0.23591,-7.62885 C 2.227755,10.274797 6.199275,5.5843472 11.183295,3.0732472 c 1.13032,-0.5695 3.836429,-1.60461 4.159469,-1.59105 0.0695,0.003 -0.55583,0.36218 -1.389639,0.79835 -2.41796,1.26484 -4.56146,3.12103 -6.17211,5.34479 -0.95957,1.32484 -2.10351,3.8540898 -2.5597,5.6595098 -0.41495,1.6422 -0.76996,5.61474 -0.43925,4.91526 0.0874,-0.18488 0.16423,-0.60767 0.17073,-0.93953 0.0303,-1.5463 1.11259,-4.67454 2.33663,-6.75358 0.74322,-1.2623898 3.33952,-4.4302298 3.49966,-4.2700798 0.0706,0.0706 -1.52791,5.6279698 -2.5467,8.8538498 -0.21896,0.6933 -0.66512,2.16813 -0.99146,3.27741 -0.32635,1.10928 -1.00971,3.41216 -1.51858,5.1175 -0.50888,1.70534 -0.9087,3.11657 -0.8885,3.13605 0.0202,0.0195 2.44697,-0.18828 5.39283,-0.46169 2.94586,-0.27341 5.385199,-0.46802 5.420769,-0.43246 0.0356,0.0356 -0.4225,1.64645 -1.017909,3.57975 -3.51283,11.4062 -4.98217,16.13975 -5.05614,16.28861 -0.0459,0.0924 -0.0482,-1.25179 -0.005,-2.98718 z m 3.13064,-21.0503 c -3.73957,-1.63221 -4.04682,-1.80635 -4.04682,-2.29365 0,-0.4927 0.64509,-2.61773 1.01598,-3.34679 0.16826,-0.33074 1.46443,-1.69311 2.88037,-3.02748 5.229209,-4.9279498 7.121319,-6.6607898 7.479509,-6.8499198 0.60958,-0.32187 1.21784,-0.23013 3.41029,0.51436 2.34525,0.79637 2.91063,1.21659 3.76044,2.79489 0.7278,1.3517098 0.62905,1.5816898 -1.8541,4.3180898 -6.58341,7.25485 -8.64679,9.33425 -9.24694,9.31875 -0.0739,-0.002 -1.603349,-0.64462 -3.398729,-1.42825 z m 3.425349,-1.73596 c -0.0799,-1.02156 -0.0547,-1.60209 0.0805,-1.8548 0.10827,-0.20232 1.00581,-1.2219 1.99452,-2.26573 0.98871,-1.04384 2.66289,-2.83741 3.7204,-3.98572 1.83542,-1.9930098 1.85832,-2.0265698 0.50422,-0.73876 -0.7802,0.742 -2.52093,2.42007 -3.8683,3.72906 -1.51107,1.46801 -2.63417,2.42625 -2.93099,2.50075 -0.34141,0.0857 -0.94529,-0.0321 -2.078469,-0.40534 -0.87848,-0.28937 -1.63213,-0.49123 -1.67477,-0.44859 -0.0426,0.0426 0.64774,0.41416 1.53419,0.82559 0.92799,0.4307 1.715849,0.91293 1.857159,1.13671 0.13499,0.21376 0.38056,0.97481 0.5457,1.69122 0.16515,0.71641 0.32993,1.30257 0.36619,1.30257 0.0363,0 0.0136,-0.66913 -0.0504,-1.48696 z m -5.315289,-2.5176 c 0.2099,-0.0302 0.73088,0.0642 1.15774,0.2096 0.42687,0.14544 0.80484,0.23572 0.83995,0.20062 0.0867,-0.0867 -2.11986,-1.1117 -2.39325,-1.1117 -0.21157,0 -0.9238,1.81802 -0.91814,2.34363 0.002,0.14382 0.2119,-0.15449 0.46745,-0.66291 0.32913,-0.65481 0.57593,-0.94039 0.84625,-0.97924 z m 1.79282,-2.81221 c 1.19509,-0.95602 2.533269,-1.59064 4.790149,-2.27168 2.52602,-0.76227 3.37248,-1.15551 4.78998,-2.2252898 1.71912,-1.29742 2.36851,-1.92257 2.18494,-2.10343 -0.24334,-0.23976 -3.06613,-1.20515 -3.52384,-1.20515 -0.43003,0 -3.31854,2.56891 -7.148759,6.3577598 -2.19486,2.17116 -2.49659,2.57103 -1.09247,1.44779 z m -1.29383,-8.6898298 c 0.37229,-0.44858 2.58326,-1.90265 3.892369,-2.55985 2.88596,-1.44882 3.97368,-1.67893 10.76213,-2.27669995 3.18858,-0.28077 5.94917,-0.48874 6.13465,-0.46216 0.37342,0.0535 -0.26993,0.22628 -12.10013,3.24903995 -4.52955,1.15736 -8.386219,2.1506 -8.570379,2.20722 -0.28693,0.0882 -0.3039,0.0657 -0.11864,-0.15755 z"
     style="fill:#000000;fill-opacity:1;stroke-width:0.168072"
     id="path428" /></svg>
